<?xml version="1.0" standalone="no"?>
<!DOCTYPE svg PUBLIC "-//W3C//DTD SVG 20010904//EN"
 "http://www.w3.org/TR/2001/REC-SVG-20010904/DTD/svg10.dtd">
<svg version="1.0" xmlns="http://www.w3.org/2000/svg"
 width="1184.000000pt" height="603.000000pt" viewBox="0 0 1184.000000 603.000000"
 preserveAspectRatio="xMidYMid meet">

<g transform="translate(0.000000,603.000000) scale(0.100000,-0.100000)"
fill="#000000" stroke="none">
<path d="M7810 5875 c0 -8 -4 -15 -8 -15 -14 0 -32 -73 -47 -188 -16 -118 -20
-518 -6 -541 14 -21 20 0 27 98 4 50 11 94 15 97 5 3 9 42 10 87 0 84 16 193
41 281 l14 50 22 -61 c12 -33 22 -67 22 -76 0 -8 6 -22 14 -30 8 -8 25 -81 40
-173 25 -159 31 -203 41 -324 3 -36 12 -132 20 -215 8 -82 17 -175 20 -205 2
-30 7 -75 9 -100 2 -25 7 -79 11 -120 19 -228 74 -530 97 -530 12 0 1 298 -17
445 -8 66 -17 161 -20 210 -2 50 -7 122 -10 160 -3 39 -8 117 -11 175 -11 210
-14 248 -34 410 -12 91 -33 210 -47 265 -14 55 -26 107 -27 115 -10 69 -109
200 -152 200 -15 0 -24 -6 -24 -15z"/>
<path d="M10577 4841 c-56 -63 -118 -340 -133 -591 -3 -58 -7 -111 -10 -118
-10 -33 -2 -412 11 -520 5 -40 3 -58 -8 -70 -8 -9 -32 -48 -52 -87 -82 -155
-106 -192 -147 -236 -54 -58 -101 -84 -127 -70 -10 6 -27 30 -37 53 -15 36
-18 72 -18 215 -1 172 -1 173 -27 199 l-26 26 -25 -24 c-15 -14 -35 -57 -52
-113 -16 -49 -42 -118 -57 -153 -16 -34 -29 -64 -29 -67 0 -13 -79 -127 -100
-143 -32 -25 -67 -36 -74 -23 -17 27 -27 132 -27 274 0 121 -3 166 -14 187
-22 43 -75 53 -75 14 0 -8 -4 -14 -8 -14 -5 0 -16 -53 -26 -117 -16 -101 -45
-236 -76 -348 -4 -16 -15 -43 -23 -60 -8 -16 -24 -50 -36 -75 -27 -60 -76
-110 -107 -110 -19 0 -29 8 -41 38 -25 60 -32 151 -33 444 l-1 277 -31 22 -31
23 -23 -30 c-13 -16 -24 -35 -24 -42 0 -7 -4 -20 -9 -30 -6 -9 -19 -62 -31
-117 -12 -55 -27 -122 -35 -150 -19 -67 -75 -246 -82 -265 -3 -8 -7 -22 -9
-31 -6 -27 -127 -286 -157 -334 -51 -83 -103 -148 -151 -189 -49 -42 -54 -49
-43 -67 6 -10 27 -24 45 -30 34 -11 41 -8 87 36 21 21 115 143 115 151 0 4 6
15 14 23 59 66 177 352 252 610 8 26 12 6 18 -94 8 -121 23 -210 41 -245 7
-14 29 -40 49 -59 68 -65 167 -49 230 39 38 53 91 158 112 222 11 32 21 58 24
58 3 0 11 -14 19 -32 8 -17 29 -46 47 -63 30 -29 37 -31 76 -25 24 3 50 10 58
15 37 22 93 72 102 90 18 39 83 137 93 138 5 1 13 -15 17 -36 9 -44 55 -116
94 -146 48 -38 157 -20 219 36 26 23 122 156 137 188 22 50 29 32 32 -85 1
-14 4 -29 7 -35 4 -5 12 -57 18 -115 27 -239 46 -398 57 -450 19 -97 36 -198
35 -215 0 -10 4 -24 8 -30 5 -5 11 -28 14 -50 6 -39 20 -105 33 -155 3 -14 9
-45 14 -70 4 -25 18 -83 30 -130 12 -47 23 -94 25 -105 3 -18 64 -216 100
-320 18 -54 44 -123 61 -162 8 -17 17 -45 20 -62 4 -17 11 -34 15 -37 5 -3 9
-12 9 -20 0 -8 11 -39 24 -67 13 -29 31 -88 41 -132 10 -44 19 -86 21 -93 5
-17 30 -25 58 -18 23 6 24 9 21 73 -2 38 -6 77 -9 88 -10 41 -48 150 -56 160
-4 6 -10 24 -14 40 -7 29 -28 82 -47 117 -5 10 -9 25 -9 34 0 9 -7 30 -15 47
-50 108 -157 482 -215 752 -17 77 -35 156 -40 175 -11 43 -45 255 -60 370 -6
47 -13 102 -15 123 -3 20 -3 37 -1 37 3 0 22 -11 42 -25 21 -14 44 -23 52 -20
7 3 23 5 33 5 46 0 123 124 164 261 43 144 56 234 56 398 -1 179 -2 187 -52
411 -31 136 -40 174 -49 195 -14 32 -82 282 -95 348 -10 49 -76 259 -91 288
-16 33 -48 42 -67 20z m106 -294 c27 -83 52 -161 57 -172 46 -107 56 -162 105
-565 29 -246 -6 -516 -89 -675 -9 -16 -16 -34 -16 -38 0 -5 -12 -25 -27 -45
-15 -20 -28 -39 -29 -40 -2 -2 -12 -1 -23 3 -40 12 -99 145 -106 240 -20 262
-26 707 -12 936 8 148 40 372 62 435 8 25 15 51 15 59 0 43 20 -1 63 -138z"/>
<path d="M3655 4670 c-3 -5 -1 -10 4 -10 6 0 11 5 11 10 0 6 -2 10 -4 10 -3 0
-8 -4 -11 -10z"/>
<path d="M6498 4433 c-34 -35 -64 -92 -74 -137 -2 -10 -8 -34 -15 -53 -13 -42
-18 -71 -24 -148 -2 -33 -5 -62 -5 -65 -6 -27 3 -461 10 -515 5 -38 12 -88 15
-110 2 -22 7 -59 10 -83 4 -24 8 -62 10 -86 3 -24 19 -101 36 -171 l31 -127
-27 -57 c-62 -129 -100 -199 -136 -253 -22 -32 -39 -61 -39 -66 0 -4 -33 -46
-73 -92 -149 -174 -267 -197 -332 -64 -33 67 -32 81 10 157 19 35 35 70 35 77
0 7 6 21 13 29 17 20 46 92 57 145 5 23 18 77 30 121 11 44 25 109 30 145 6
36 13 75 15 88 4 16 -3 31 -24 52 -16 17 -33 30 -38 30 -14 0 -123 -112 -123
-127 0 -7 -4 -13 -9 -13 -5 0 -13 -10 -17 -22 -4 -13 -17 -45 -30 -73 -45 -98
-75 -240 -81 -389 l-6 -140 -36 -39 c-91 -101 -166 -124 -215 -67 -45 54 -56
136 -37 265 35 227 44 319 36 344 -7 23 -62 48 -76 34 -10 -10 -25 -90 -33
-178 -9 -99 -36 -261 -50 -305 -54 -168 -86 -230 -147 -285 -52 -47 -86 -45
-112 5 -21 41 -19 78 13 245 22 116 27 187 34 454 4 161 3 165 -20 188 -48 48
-69 22 -85 -102 -28 -214 -52 -449 -58 -590 -7 -145 -10 -165 -35 -216 -15
-31 -38 -67 -51 -79 l-24 -23 -20 24 c-51 63 -65 237 -31 394 31 147 29 383
-6 508 -6 21 -56 48 -70 39 -36 -24 -47 -140 -46 -452 2 -214 0 -229 -23 -305
-52 -164 -144 -295 -208 -295 -30 0 -65 46 -72 95 -16 104 -16 139 1 236 15
85 18 149 17 348 -2 229 -3 245 -22 262 -25 24 -60 24 -67 2 -3 -10 -9 -25
-14 -34 -4 -8 -9 -46 -10 -85 -1 -38 -3 -87 -5 -109 -2 -22 -6 -148 -10 -280
-5 -237 -6 -240 -38 -335 -37 -106 -86 -189 -128 -214 -25 -15 -29 -15 -43 0
-28 28 -52 87 -61 149 -32 224 -41 584 -20 861 8 118 4 139 -35 159 -27 14
-29 14 -74 -33 -28 -29 -64 -83 -91 -140 -48 -98 -159 -420 -193 -562 -28
-112 -60 -265 -67 -315 -3 -23 -7 -51 -10 -64 -13 -69 -24 -172 -19 -184 10
-27 -116 -158 -201 -208 -83 -48 -203 -36 -237 24 -7 12 -13 24 -13 27 0 3 -8
19 -17 35 -35 65 -50 234 -30 335 35 176 46 450 27 720 -6 90 -17 110 -60 110
-28 0 -43 -45 -45 -137 0 -39 -3 -82 -5 -95 -8 -43 -25 -430 -25 -558 0 -112
-3 -137 -29 -216 -28 -88 -80 -204 -104 -235 -20 -25 -66 -52 -80 -46 -8 3
-22 22 -32 44 -36 74 -27 505 20 939 48 451 68 706 60 779 -6 55 -11 68 -32
82 -18 12 -29 14 -41 6 -20 -12 -53 -70 -56 -98 -1 -11 -5 -25 -8 -30 -3 -6
-9 -62 -13 -125 -4 -63 -8 -117 -10 -120 -1 -3 -6 -57 -9 -120 -4 -63 -9 -137
-11 -165 -3 -27 -7 -72 -9 -100 -3 -27 -8 -81 -11 -120 -3 -38 -8 -86 -9 -105
-2 -19 -11 -98 -20 -175 -9 -77 -19 -160 -22 -185 -2 -25 -11 -83 -19 -130 -8
-47 -16 -101 -19 -120 -29 -223 -105 -493 -162 -577 -75 -110 -148 -92 -209
52 -47 114 -106 399 -119 580 -6 74 -13 160 -21 235 -14 131 -16 344 -5 590
15 351 17 377 23 425 3 22 8 76 12 120 7 89 9 114 25 229 6 44 21 185 35 315
13 130 27 247 29 261 18 107 18 117 -9 144 -21 21 -30 24 -46 16 -10 -6 -19
-17 -19 -25 0 -8 -3 -15 -7 -15 -5 0 -9 -24 -10 -54 -1 -29 -8 -105 -17 -167
-20 -150 -22 -174 -46 -444 -20 -228 -29 -289 -71 -455 -11 -47 -23 -93 -24
-103 -2 -10 -9 -32 -14 -50 -95 -292 -128 -386 -179 -514 -34 -83 -74 -180
-90 -215 -17 -34 -47 -101 -67 -148 -21 -47 -69 -150 -108 -230 -38 -80 -82
-172 -98 -205 -29 -62 -89 -174 -136 -254 -82 -142 -247 -314 -340 -357 -38
-17 -70 -24 -117 -24 -79 0 -104 9 -153 55 -38 36 -70 44 -91 23 -22 -22 -13
-44 30 -74 87 -61 131 -75 228 -73 50 1 90 5 90 10 0 5 6 9 14 9 72 0 261 162
354 304 88 133 237 416 337 641 10 22 35 78 57 125 22 47 54 117 72 155 18 39
46 104 61 145 16 41 32 80 35 85 4 6 17 39 29 75 13 36 26 72 30 80 4 8 25 69
45 135 21 66 41 131 45 145 5 14 8 -90 7 -230 0 -140 3 -295 7 -345 4 -49 12
-142 17 -205 41 -474 135 -821 238 -883 57 -33 162 -18 219 31 26 23 81 113
87 145 3 12 23 96 45 187 22 91 45 202 52 248 6 45 15 82 19 82 4 0 10 -37 14
-83 11 -137 16 -160 42 -195 31 -39 59 -52 120 -52 81 0 120 34 187 165 28 54
36 64 37 44 0 -14 7 -34 15 -45 8 -10 15 -25 15 -33 0 -29 80 -90 143 -110
122 -38 255 -6 349 84 20 19 39 35 41 35 2 0 7 -19 11 -42 14 -87 59 -124 145
-119 71 3 118 42 170 141 39 74 90 236 98 310 3 33 9 63 13 65 4 2 13 -8 21
-23 28 -56 53 -85 87 -99 52 -22 103 -19 144 8 35 23 92 103 117 167 13 31 31
43 31 20 0 -33 97 -88 156 -88 31 0 96 29 120 54 27 28 75 102 98 150 l19 40
17 -44 c53 -135 210 -147 266 -20 16 37 34 53 34 31 0 -5 24 -19 53 -29 109
-41 190 8 272 162 38 72 40 74 52 52 31 -58 126 -102 204 -93 59 7 92 24 145
74 l41 38 25 -35 c41 -58 97 -90 179 -101 70 -10 74 -10 134 21 66 34 113 76
165 150 54 78 136 204 152 235 8 17 31 61 51 98 l35 68 19 -43 c53 -124 116
-230 176 -295 50 -54 69 -65 128 -73 58 -8 56 4 -7 51 -95 71 -158 177 -223
377 l-40 124 19 47 c10 26 21 63 24 83 3 19 10 47 16 62 5 15 10 44 10 65 0
21 6 56 14 77 7 22 16 75 20 119 4 44 9 94 11 110 21 138 6 570 -23 645 -5 14
-12 48 -16 75 -10 67 -29 133 -55 183 -28 54 -54 55 -103 5z m90 -188 c29
-111 41 -196 51 -354 10 -158 -3 -411 -25 -509 -8 -37 -19 -89 -24 -115 -17
-90 -41 -162 -50 -147 -10 20 -26 122 -45 295 -19 166 -22 576 -5 680 23 142
56 254 70 238 4 -4 17 -44 28 -88z m-633 -1263 c-32 -132 -95 -312 -109 -312
-14 0 47 233 87 330 36 86 46 79 22 -18z m-2102 -242 c7 -145 -12 -247 -80
-435 -30 -83 -173 -378 -180 -371 -6 6 15 143 39 251 31 142 110 413 156 540
41 111 52 138 56 134 2 -2 6 -56 9 -119z m-8 -601 c-19 -154 -52 -304 -90
-404 -32 -86 -87 -172 -121 -187 -42 -19 -55 5 -60 110 l-3 90 38 54 c21 29
51 76 66 103 16 28 31 52 34 55 10 8 129 266 137 295 14 58 14 10 -1 -116z"/>
<path d="M10004 4405 c-4 -8 -12 -15 -20 -15 -16 0 -19 -35 -4 -53 65 -80 67
-84 75 -167 3 -30 8 -56 11 -59 12 -13 53 56 54 90 1 106 -92 268 -116 204z"/>
<path d="M7733 3838 c-17 -19 -18 -40 -15 -307 3 -276 5 -359 16 -466 2 -27 8
-86 11 -129 4 -43 8 -86 10 -95 3 -16 17 -144 20 -191 2 -14 3 -25 4 -25 1 0
4 -22 7 -50 7 -68 11 -102 18 -155 3 -25 11 -92 17 -150 6 -57 15 -112 20
-121 12 -24 68 -42 85 -28 16 13 18 52 5 77 -19 36 -26 159 -36 607 -3 132 -7
254 -9 270 -4 36 -18 224 -21 280 -2 22 -3 40 -4 40 0 0 -3 49 -6 108 -3 60
-10 118 -17 130 -6 12 -13 47 -15 77 -2 30 -6 69 -7 85 -2 17 -4 37 -5 46 -2
24 -55 22 -78 -3z"/>
<path d="M10165 1599 c-27 -5 -68 -11 -90 -14 -39 -5 -111 -18 -190 -35 -35
-8 -64 -11 -180 -24 -16 -2 -48 -8 -70 -14 -22 -6 -62 -13 -90 -15 -27 -3 -69
-10 -91 -16 -23 -6 -54 -13 -70 -15 -122 -17 -226 -36 -241 -44 -10 -5 -40
-10 -68 -11 -27 -2 -54 -5 -58 -8 -4 -3 -18 -6 -30 -8 -12 -2 -62 -11 -112
-20 -49 -9 -110 -19 -135 -21 -25 -2 -56 -7 -70 -10 -14 -3 -43 -8 -64 -10
-22 -3 -47 -9 -57 -15 -10 -5 -24 -6 -32 -3 -8 3 -41 -2 -73 -10 -33 -8 -83
-17 -113 -20 -29 -3 -79 -10 -110 -16 -31 -5 -72 -11 -91 -14 -19 -2 -62 -10
-95 -16 -33 -7 -78 -14 -100 -15 -22 -2 -80 -10 -130 -19 -49 -9 -142 -25
-205 -36 -63 -11 -146 -27 -185 -35 -38 -9 -140 -29 -225 -45 -85 -17 -182
-37 -215 -45 -33 -8 -107 -25 -165 -39 -58 -13 -125 -30 -150 -36 -25 -6 -61
-15 -80 -20 -203 -49 -687 -195 -877 -266 -51 -19 -98 -34 -105 -34 -7 0 -25
-6 -39 -14 -15 -7 -64 -26 -110 -41 -46 -15 -93 -33 -104 -39 -11 -7 -74 -29
-140 -51 -66 -21 -150 -49 -187 -61 -67 -22 -80 -20 -56 4 10 10 10 15 -2 22
-24 15 -56 12 -144 -14 -44 -14 -115 -34 -156 -46 -194 -56 -255 -95 -210
-135 11 -10 38 -21 61 -25 101 -19 372 34 544 105 17 7 55 18 85 25 30 7 60
17 66 21 6 5 45 18 85 29 41 10 75 24 77 30 2 5 8 8 13 4 8 -4 107 30 204 71
17 7 89 32 160 56 72 23 135 45 140 49 6 4 28 11 50 15 22 4 45 10 50 15 12 9
298 97 335 103 14 2 36 9 50 14 14 6 41 14 60 18 19 3 49 11 65 16 30 9 453
111 535 129 25 6 95 21 155 34 223 50 746 141 925 162 30 3 57 7 60 9 3 2 28
6 55 9 28 4 70 9 95 12 25 3 83 12 130 19 117 19 133 22 230 39 47 8 123 22
170 30 47 8 114 20 150 27 36 6 171 31 300 56 129 25 244 47 255 48 63 10 208
38 260 51 33 8 69 17 80 19 11 3 52 15 90 29 39 13 90 29 115 36 109 31 184
58 188 69 4 13 -48 13 -123 0z m-4405 -943 c0 -3 -4 -8 -10 -11 -5 -3 -10 -1
-10 4 0 6 5 11 10 11 6 0 10 -2 10 -4z"/>
</g>
</svg>
